shantell_organic--light.ufo
<glyph name="four" format="2">
	<unicode hex="0034"/>
	<advance width="700"/>
	<image fileName="zero.png" xScale="2.3662938837" yScale="2.3662938837" xOffset="-2868.8248343698" yOffset="-192.644631698" color="0,0,0,0.16492"/>
	<outline>
		<contour>
			<point x="408" y="157" type="curve" smooth="yes"/>
			<point x="408" y="316"/>
			<point x="455" y="473"/>
			<point x="455" y="668" type="curve" smooth="yes"/>
			<point x="455" y="721"/>
			<point x="450" y="757"/>
			<point x="440" y="787" type="curve"/>
			<point x="468" y="784" type="line"/>
			<point x="283.9126237878" y="682.4345510554"/>
			<point x="95.2290584362" y="458.9805308499"/>
			<point x="38" y="214" type="curve"/>
			<point x="14" y="252" type="line"/>
			<point x="49" y="237"/>
			<point x="56" y="236"/>
			<point x="75" y="236" type="curve" smooth="yes"/>
			<point x="253.0511508951" y="236"/>
			<point x="398.9226069246" y="287"/>
			<point x="641" y="287" type="curve" smooth="yes"/>
			<point x="688" y="287"/>
			<point x="714" y="271"/>
			<point x="714" y="249" type="curve" smooth="yes"/>
			<point x="714" y="233"/>
			<point x="700" y="222"/>
			<point x="667" y="222" type="curve" smooth="yes"/>
			<point x="414.3683206107" y="222"/>
			<point x="268.608490566" y="170"/>
			<point x="68" y="170" type="curve" smooth="yes"/>
			<point x="16" y="170"/>
			<point x="-17" y="199"/>
			<point x="-17" y="242" type="curve" smooth="yes"/>
			<point x="-17" y="267"/>
			<point x="-11" y="286"/>
			<point x="6" y="329" type="curve" smooth="yes"/>
			<point x="117.0077786254" y="618.6293860499"/>
			<point x="355.7083333333" y="840"/>
			<point x="468" y="840" type="curve" smooth="yes"/>
			<point x="508" y="840"/>
			<point x="522" y="788"/>
			<point x="522" y="670" type="curve" smooth="yes"/>
			<point x="522" y="483"/>
			<point x="475" y="345"/>
			<point x="475" y="148" type="curve" smooth="yes"/>
			<point x="475" y="47"/>
			<point x="485" y="4"/>
			<point x="485" y="-52" type="curve" smooth="yes"/>
			<point x="485" y="-80"/>
			<point x="473" y="-96"/>
			<point x="455" y="-96" type="curve" smooth="yes"/>
			<point x="421" y="-96"/>
			<point x="408" y="-21"/>
		</contour>
	</outline>
</glyph>
<glyph name="O" format="2">
	<unicode hex="004F"/>
	<advance width="726"/>
	<outline>
		<contour>
			<point x="276" y="457" type="curve" smooth="yes"/>
			<point x="240.377195013" y="433.251463342"/>
			<point x="190" y="377.5089820359"/>
			<point x="190" y="280" type="curve" smooth="yes"/>
			<point x="190" y="200.1829268293"/>
			<point x="239.2995169082" y="126"/>
			<point x="347" y="126" type="curve" smooth="yes"/>
			<point x="455.3389121339" y="126"/>
			<point x="536" y="188.9195402299"/>
			<point x="536" y="287" type="curve" smooth="yes"/>
			<point x="536" y="394.0787037037"/>
			<point x="478.4444444444" y="516"/>
			<point x="361" y="516" type="curve" smooth="yes"/>
			<point x="326" y="516"/>
			<point x="315" y="496"/>
			<point x="315" y="470" type="curve" smooth="yes"/>
			<point x="315" y="440"/>
			<point x="298" y="425"/>
			<point x="280" y="425" type="curve" smooth="yes"/>
			<point x="262" y="425"/>
			<point x="243" y="441"/>
			<point x="243" y="470" type="curve" smooth="yes"/>
			<point x="243" y="528"/>
			<point x="283" y="581"/>
			<point x="354" y="581" type="curve" smooth="yes"/>
			<point x="517.5496688742" y="581"/>
			<point x="606" y="449.1708185053"/>
			<point x="606" y="287" type="curve" smooth="yes"/>
			<point x="606" y="160.2583333333"/>
			<point x="504.5792880259" y="60"/>
			<point x="347" y="60" type="curve" smooth="yes"/>
			<point x="198.6714801444" y="60"/>
			<point x="120" y="163.3043478261"/>
			<point x="120" y="280" type="curve" smooth="yes"/>
			<point x="120" y="444.4489795918"/>
			<point x="253.1339712919" y="535"/>
			<point x="279" y="535" type="curve" smooth="yes"/>
			<point x="287" y="535"/>
			<point x="295" y="533"/>
			<point x="305" y="520" type="curve" smooth="yes"/>
			<point x="322" y="495"/>
			<point x="303" y="474"/>
		</contour>
	</outline>
</glyph>
<glyph name="h" format="2">
	<unicode hex="0068"/>
	<advance width="613"/>
	<outline>
		<contour>
			<point x="560" y="-10" type="curve" smooth="yes"/>
			<point x="578.6666666667" y="-10"/>
			<point x="595" y="4"/>
			<point x="595" y="20" type="curve" smooth="yes"/>
			<point x="595" y="32"/>
			<point x="591" y="43"/>
			<point x="585" y="53" type="curve" smooth="yes"/>
			<point x="563" y="90"/>
			<point x="549.015666716" y="131.8361020479"/>
			<point x="536" y="268" type="curve" smooth="yes"/>
			<point x="521.2785080922" y="428.8039885313"/>
			<point x="503.1962616822" y="524"/>
			<point x="419" y="524" type="curve" smooth="yes"/>
			<point x="319.821192053" y="524"/>
			<point x="203" y="425"/>
			<point x="107" y="108" type="curve"/>
			<point x="125" y="106" type="line"/>
			<point x="121" y="295"/>
			<point x="173" y="490"/>
			<point x="193" y="644" type="curve" smooth="yes"/>
			<point x="208" y="765"/>
			<point x="197" y="809"/>
			<point x="162" y="810" type="curve" smooth="yes"/>
			<point x="142" y="810"/>
			<point x="133" y="792"/>
			<point x="130" y="773" type="curve" smooth="yes"/>
			<point x="125" y="732"/>
			<point x="129" y="681"/>
			<point x="122" y="625" type="curve" smooth="yes"/>
			<point x="106" y="494"/>
			<point x="55" y="333"/>
			<point x="55" y="95" type="curve" smooth="yes"/>
			<point x="55" y="20"/>
			<point x="77" y="-10"/>
			<point x="103" y="-10" type="curve" smooth="yes"/>
			<point x="124" y="-10"/>
			<point x="140" y="-2"/>
			<point x="149" y="28" type="curve" smooth="yes"/>
			<point x="228.5117974408" y="301.7621380242"/>
			<point x="341" y="459"/>
			<point x="418" y="459" type="curve"/>
			<point x="447.1093557521" y="415.9181534869"/>
			<point x="463" y="358"/>
			<point x="473" y="204" type="curve" smooth="yes"/>
			<point x="481" y="85"/>
			<point x="520" y="-10"/>
		</contour>
	</outline>
</glyph>
<glyph name="j" format="2">
	<unicode hex="006A"/>
	<advance width="241"/>
	<image fileName="b.png" xScale="2.580311745" yScale="2.580311745" xOffset="-1203.7840986768" yOffset="-580.570142633" color="0,0,0,0.24109"/>
	<outline>
		<contour>
			<point x="118" y="398" type="curve" smooth="yes"/>
			<point x="164" y="246"/>
			<point x="189" y="121.9439834025"/>
			<point x="189" y="-40" type="curve" smooth="yes"/>
			<point x="189" y="-185"/>
			<point x="114" y="-260"/>
			<point x="0" y="-260" type="curve" smooth="yes"/>
			<point x="-139" y="-260"/>
			<point x="-210" y="-214"/>
			<point x="-210" y="-179" type="curve" smooth="yes"/>
			<point x="-210" y="-162"/>
			<point x="-202" y="-152"/>
			<point x="-180" y="-152" type="curve" smooth="yes"/>
			<point x="-152" y="-152"/>
			<point x="-113" y="-194"/>
			<point x="-9" y="-194" type="curve" smooth="yes"/>
			<point x="74" y="-194"/>
			<point x="122" y="-147"/>
			<point x="122" y="-52" type="curve" smooth="yes"/>
			<point x="122" y="252"/>
			<point x="46" y="357"/>
			<point x="46" y="409" type="curve" smooth="yes"/>
			<point x="46" y="439"/>
			<point x="60" y="451"/>
			<point x="75" y="451" type="curve" smooth="yes"/>
			<point x="90.7021276596" y="451"/>
			<point x="106" y="438"/>
		</contour>
		<contour>
			<point x="130" y="677" type="curve" smooth="yes"/>
			<point x="169" y="677"/>
			<point x="184" y="704"/>
			<point x="184" y="725" type="curve" smooth="yes"/>
			<point x="184" y="759"/>
			<point x="152" y="801"/>
			<point x="101" y="801" type="curve" smooth="yes"/>
			<point x="74" y="801"/>
			<point x="53" y="781"/>
			<point x="53" y="756" type="curve" smooth="yes"/>
			<point x="53" y="716"/>
			<point x="89" y="677"/>
		</contour>
	</outline>
</glyph>
<glyph name="J.alt1" format="2">
	<advance width="584"/>
	<outline>
		<contour>
			<point x="279" y="-2" type="curve" smooth="yes"/>
			<point x="425" y="-2"/>
			<point x="503" y="60"/>
			<point x="503" y="196" type="curve" smooth="yes"/>
			<point x="503" y="303"/>
			<point x="459" y="487"/>
			<point x="414" y="606" type="curve" smooth="yes"/>
			<point x="400" y="646"/>
			<point x="386" y="660"/>
			<point x="354" y="660" type="curve" smooth="yes"/>
			<point x="328" y="660"/>
			<point x="330" y="628"/>
			<point x="342" y="599" type="curve" smooth="yes"/>
			<point x="388" y="487"/>
			<point x="435" y="300"/>
			<point x="435" y="202" type="curve" smooth="yes"/>
			<point x="435" y="107"/>
			<point x="397" y="63"/>
			<point x="279" y="63" type="curve" smooth="yes"/>
			<point x="190" y="63"/>
			<point x="152" y="107"/>
			<point x="152" y="173" type="curve" smooth="yes"/>
			<point x="152" y="217"/>
			<point x="184" y="232"/>
			<point x="184" y="258" type="curve" smooth="yes"/>
			<point x="184" y="274"/>
			<point x="176" y="281"/>
			<point x="162" y="281" type="curve" smooth="yes"/>
			<point x="131" y="281"/>
			<point x="84" y="221"/>
			<point x="84" y="161" type="curve" smooth="yes"/>
			<point x="84" y="59"/>
			<point x="163" y="-2"/>
		</contour>
		<contour>
			<point x="135" y="618" type="curve" smooth="yes"/>
			<point x="219" y="618"/>
			<point x="351" y="630"/>
			<point x="488" y="630" type="curve" smooth="yes"/>
			<point x="521" y="630"/>
			<point x="538" y="641"/>
			<point x="538" y="660" type="curve" smooth="yes"/>
			<point x="538" y="689"/>
			<point x="514" y="696"/>
			<point x="492" y="696" type="curve" smooth="yes"/>
			<point x="338" y="696"/>
			<point x="260" y="684"/>
			<point x="150" y="684" type="curve" smooth="yes"/>
			<point x="109" y="684"/>
			<point x="103" y="697"/>
			<point x="76" y="697" type="curve" smooth="yes"/>
			<point x="58" y="697"/>
			<point x="48" y="687"/>
			<point x="48" y="671" type="curve" smooth="yes"/>
			<point x="48" y="633"/>
			<point x="99" y="618"/>
		</contour>
	</outline>
</glyph>
<glyph name="M.alt2" format="2">
	<advance width="916"/>
	<outline>
		<contour>
			<point x="183" y="443" type="curve" smooth="yes"/>
			<point x="191" y="337"/>
			<point x="157" y="342"/>
			<point x="174" y="444" type="curve" smooth="yes"/>
			<point x="197" y="583"/>
			<point x="232" y="644"/>
			<point x="282" y="644" type="curve" smooth="yes"/>
			<point x="352" y="644"/>
			<point x="372" y="496"/>
			<point x="408" y="251" type="curve" smooth="yes"/>
			<point x="414" y="212"/>
			<point x="429" y="149"/>
			<point x="463" y="89" type="curve" smooth="yes"/>
			<point x="479" y="60"/>
			<point x="416" y="33"/>
			<point x="444" y="82" type="curve" smooth="yes"/>
			<point x="525" y="211"/>
			<point x="550" y="424"/>
			<point x="597" y="524" type="curve" smooth="yes"/>
			<point x="636" y="607"/>
			<point x="664" y="640"/>
			<point x="693" y="640" type="curve" smooth="yes"/>
			<point x="726" y="640"/>
			<point x="776" y="601"/>
			<point x="785" y="416" type="curve" smooth="yes"/>
			<point x="791" y="301"/>
			<point x="818" y="174"/>
			<point x="861" y="71" type="curve" smooth="yes"/>
			<point x="875" y="33"/>
			<point x="861" y="22"/>
			<point x="843" y="22" type="curve" smooth="yes"/>
			<point x="818" y="22"/>
			<point x="806" y="36"/>
			<point x="784" y="86" type="curve" smooth="yes"/>
			<point x="753" y="157"/>
			<point x="728" y="297"/>
			<point x="723" y="404" type="curve" smooth="yes"/>
			<point x="719" y="481"/>
			<point x="706" y="520"/>
			<point x="681" y="560" type="curve" smooth="yes"/>
			<point x="656" y="599"/>
			<point x="753" y="626"/>
			<point x="690" y="555" type="curve" smooth="yes"/>
			<point x="610" y="464"/>
			<point x="612" y="244"/>
			<point x="501" y="51" type="curve" smooth="yes"/>
			<point x="490" y="32"/>
			<point x="482" y="22"/>
			<point x="458" y="22" type="curve" smooth="yes"/>
			<point x="438" y="22"/>
			<point x="426" y="32"/>
			<point x="409" y="55" type="curve" smooth="yes"/>
			<point x="366" y="118"/>
			<point x="343" y="234"/>
			<point x="325" y="353" type="curve" smooth="yes"/>
			<point x="314" y="438"/>
			<point x="296" y="519"/>
			<point x="269" y="577" type="curve" smooth="yes"/>
			<point x="238" y="644"/>
			<point x="317" y="659"/>
			<point x="276" y="579" type="curve" smooth="yes"/>
			<point x="224" y="470"/>
			<point x="191" y="282"/>
			<point x="191" y="58" type="curve" smooth="yes"/>
			<point x="191" y="32"/>
			<point x="179" y="19"/>
			<point x="163" y="19" type="curve" smooth="yes"/>
			<point x="141" y="19"/>
			<point x="113" y="36"/>
			<point x="113" y="149" type="curve" smooth="yes"/>
			<point x="113" y="241"/>
			<point x="123" y="301"/>
			<point x="123" y="364" type="curve" smooth="yes"/>
			<point x="123" y="499"/>
			<point x="96" y="526"/>
			<point x="96" y="555" type="curve" smooth="yes"/>
			<point x="96" y="569"/>
			<point x="105" y="577"/>
			<point x="122" y="577" type="curve" smooth="yes"/>
			<point x="155" y="577"/>
			<point x="178" y="520"/>
		</contour>
	</outline>
</glyph>
<glyph name="R.alt1" format="2">
	<advance width="700"/>
	<outline>
		<contour>
			<point x="97" y="621" type="curve" smooth="yes"/>
			<point x="67" y="621"/>
			<point x="63" y="603"/>
			<point x="80" y="560" type="curve" smooth="yes"/>
			<point x="111" y="483"/>
			<point x="116" y="450"/>
			<point x="121" y="395" type="curve"/>
			<point x="86" y="272"/>
			<point x="70" y="181"/>
			<point x="70" y="106" type="curve" smooth="yes"/>
			<point x="70" y="30"/>
			<point x="80" y="-13"/>
			<point x="114" y="-13" type="curve" smooth="yes"/>
			<point x="133" y="-13"/>
			<point x="137" y="-5"/>
			<point x="137" y="68" type="curve" smooth="yes"/>
			<point x="137" y="343"/>
			<point x="252" y="645"/>
			<point x="455" y="645" type="curve" smooth="yes"/>
			<point x="528" y="645"/>
			<point x="556" y="600"/>
			<point x="556" y="547" type="curve" smooth="yes"/>
			<point x="556" y="465"/>
			<point x="479" y="372"/>
			<point x="232" y="281" type="curve" smooth="yes"/>
			<point x="189" y="265"/>
			<point x="182" y="239"/>
			<point x="208" y="207" type="curve" smooth="yes"/>
			<point x="299" y="101"/>
			<point x="555" y="-12"/>
			<point x="628" y="-12" type="curve" smooth="yes"/>
			<point x="657" y="-12"/>
			<point x="669" y="-3"/>
			<point x="669" y="17" type="curve" smooth="yes"/>
			<point x="669" y="34"/>
			<point x="659" y="45"/>
			<point x="615" y="58" type="curve" smooth="yes"/>
			<point x="468" y="103"/>
			<point x="345" y="169"/>
			<point x="274" y="232" type="curve"/>
			<point x="564" y="337"/>
			<point x="626" y="450"/>
			<point x="626" y="548" type="curve" smooth="yes"/>
			<point x="626" y="639"/>
			<point x="577" y="710"/>
			<point x="464" y="710" type="curve" smooth="yes"/>
			<point x="338" y="710"/>
			<point x="226" y="637"/>
			<point x="149" y="453" type="curve"/>
			<point x="173" y="462" type="line"/>
			<point x="164" y="585"/>
			<point x="131" y="621"/>
		</contour>
	</outline>
</glyph>
<glyph name="V.alt2" format="2">
	<advance width="665"/>
	<outline>
		<contour>
			<point x="337" y="19" type="curve" smooth="yes"/>
			<point x="354" y="19"/>
			<point x="365" y="28"/>
			<point x="378" y="79" type="curve" smooth="yes"/>
			<point x="431" y="285"/>
			<point x="497" y="395"/>
			<point x="616" y="598" type="curve" smooth="yes"/>
			<point x="630" y="622"/>
			<point x="639" y="646"/>
			<point x="639" y="668" type="curve" smooth="yes"/>
			<point x="639" y="682"/>
			<point x="632" y="692"/>
			<point x="617" y="692" type="curve" smooth="yes"/>
			<point x="600" y="692"/>
			<point x="594" y="686"/>
			<point x="559" y="632" type="curve" smooth="yes"/>
			<point x="454" y="468"/>
			<point x="370" y="297"/>
			<point x="316" y="88" type="curve"/>
			<point x="339" y="95" type="line"/>
			<point x="235" y="257"/>
			<point x="218" y="445"/>
			<point x="148" y="578" type="curve" smooth="yes"/>
			<point x="120" y="634"/>
			<point x="98" y="656"/>
			<point x="69" y="656" type="curve" smooth="yes"/>
			<point x="55" y="656"/>
			<point x="48" y="648"/>
			<point x="48" y="634" type="curve" smooth="yes"/>
			<point x="48" y="612"/>
			<point x="59" y="594"/>
			<point x="91" y="542" type="curve" smooth="yes"/>
			<point x="143" y="461"/>
			<point x="177" y="232"/>
			<point x="266" y="88" type="curve" smooth="yes"/>
			<point x="304" y="25"/>
			<point x="318" y="19"/>
		</contour>
	</outline>
</glyph>
<glyph name="W.alt1" format="2">
	<advance width="948"/>
	<outline>
		<contour>
			<point x="134" y="605" type="curve" smooth="yes"/>
			<point x="131" y="651"/>
			<point x="125" y="674"/>
			<point x="94" y="674" type="curve" smooth="yes"/>
			<point x="70" y="674"/>
			<point x="61" y="652"/>
			<point x="63" y="629" type="curve" smooth="yes"/>
			<point x="77" y="450"/>
			<point x="144" y="174"/>
			<point x="206" y="65" type="curve" smooth="yes"/>
			<point x="231" y="21"/>
			<point x="251" y="12"/>
			<point x="276" y="12" type="curve" smooth="yes"/>
			<point x="301" y="12"/>
			<point x="321" y="30"/>
			<point x="325" y="58" type="curve" smooth="yes"/>
			<point x="353" y="243"/>
			<point x="392" y="460"/>
			<point x="479" y="552" type="curve" smooth="yes"/>
			<point x="497" y="570"/>
			<point x="447" y="577"/>
			<point x="469" y="555" type="curve" smooth="yes"/>
			<point x="555" y="465"/>
			<point x="530" y="182"/>
			<point x="600" y="75" type="curve" smooth="yes"/>
			<point x="640" y="14"/>
			<point x="665" y="9"/>
			<point x="692" y="9" type="curve" smooth="yes"/>
			<point x="711" y="9"/>
			<point x="727" y="21"/>
			<point x="744" y="58" type="curve" smooth="yes"/>
			<point x="803" y="193"/>
			<point x="817" y="457"/>
			<point x="872" y="590" type="curve" smooth="yes"/>
			<point x="894" y="646"/>
			<point x="889" y="674"/>
			<point x="864" y="674" type="curve" smooth="yes"/>
			<point x="841" y="674"/>
			<point x="831" y="668"/>
			<point x="813" y="627" type="curve" smooth="yes"/>
			<point x="751" y="483"/>
			<point x="742" y="202"/>
			<point x="674" y="73" type="curve" smooth="yes"/>
			<point x="667" y="60"/>
			<point x="697" y="64"/>
			<point x="684" y="78" type="curve" smooth="yes"/>
			<point x="603" y="168"/>
			<point x="620" y="344"/>
			<point x="586" y="463" type="curve" smooth="yes"/>
			<point x="554" y="572"/>
			<point x="525" y="611"/>
			<point x="480" y="611" type="curve" smooth="yes"/>
			<point x="446" y="611"/>
			<point x="416" y="582"/>
			<point x="390" y="546" type="curve" smooth="yes"/>
			<point x="330" y="460"/>
			<point x="288" y="284"/>
			<point x="259" y="79" type="curve" smooth="yes"/>
			<point x="251" y="21"/>
			<point x="282" y="46"/>
			<point x="270" y="73" type="curve" smooth="yes"/>
			<point x="197" y="239"/>
			<point x="143" y="484"/>
		</contour>
	</outline>
</glyph>
<glyph name="X.alt1" format="2">
	<advance width="587"/>
	<outline>
		<contour>
			<point x="145" y="638" type="curve" smooth="yes"/>
			<point x="187" y="475"/>
			<point x="429" y="227"/>
			<point x="487" y="118" type="curve" smooth="yes"/>
			<point x="527" y="41"/>
			<point x="508" y="15"/>
			<point x="486" y="15" type="curve" smooth="yes"/>
			<point x="474" y="15"/>
			<point x="462" y="20"/>
			<point x="436" y="67" type="curve" smooth="yes"/>
			<point x="358" y="217"/>
			<point x="159" y="412"/>
			<point x="105" y="550" type="curve" smooth="yes"/>
			<point x="69" y="643"/>
			<point x="80" y="668"/>
			<point x="108" y="668" type="curve" smooth="yes"/>
			<point x="127" y="668"/>
			<point x="139" y="659"/>
		</contour>
		<contour>
			<point x="490" y="573" type="curve" smooth="yes"/>
			<point x="386" y="477"/>
			<point x="239" y="289"/>
			<point x="118" y="50" type="curve" smooth="yes"/>
			<point x="100" y="14"/>
			<point x="88" y="8"/>
			<point x="74" y="8" type="curve" smooth="yes"/>
			<point x="48" y="8"/>
			<point x="36" y="34"/>
			<point x="64" y="93" type="curve" smooth="yes"/>
			<point x="126" y="223"/>
			<point x="327" y="515"/>
			<point x="470" y="647" type="curve" smooth="yes"/>
			<point x="486" y="661"/>
			<point x="494" y="664"/>
			<point x="502" y="664" type="curve" smooth="yes"/>
			<point x="524" y="664"/>
			<point x="542" y="623"/>
		</contour>
	</outline>
</glyph>
<glyph name="X.alt2" format="2">
	<advance width="587"/>
	<outline>
		<contour>
			<point x="159" y="595" type="curve" smooth="yes"/>
			<point x="200" y="439"/>
			<point x="415" y="241"/>
			<point x="468" y="141" type="curve" smooth="yes"/>
			<point x="510" y="62"/>
			<point x="491" y="37"/>
			<point x="470" y="37" type="curve" smooth="yes"/>
			<point x="458" y="37"/>
			<point x="444" y="40"/>
			<point x="419" y="87" type="curve" smooth="yes"/>
			<point x="351" y="220"/>
			<point x="167" y="389"/>
			<point x="118" y="510" type="curve" smooth="yes"/>
			<point x="82" y="602"/>
			<point x="93" y="626"/>
			<point x="121" y="626" type="curve" smooth="yes"/>
			<point x="140" y="626"/>
			<point x="152" y="618"/>
		</contour>
		<contour>
			<point x="473" y="529" type="curve" smooth="yes"/>
			<point x="380" y="443"/>
			<point x="241" y="283"/>
			<point x="135" y="72" type="curve" smooth="yes"/>
			<point x="117" y="36"/>
			<point x="105" y="30"/>
			<point x="90" y="30" type="curve" smooth="yes"/>
			<point x="64" y="30"/>
			<point x="52" y="56"/>
			<point x="80" y="115" type="curve" smooth="yes"/>
			<point x="136" y="230"/>
			<point x="325" y="484"/>
			<point x="453" y="603" type="curve" smooth="yes"/>
			<point x="469" y="617"/>
			<point x="477" y="620"/>
			<point x="485" y="620" type="curve" smooth="yes"/>
			<point x="507" y="620"/>
			<point x="526" y="579"/>
		</contour>
	</outline>
</glyph>
<glyph name="b.alt1" format="2">
	<advance width="575"/>
	<outline>
		<contour>
			<point x="172" y="743" type="curve" smooth="yes"/>
			<point x="172" y="640"/>
			<point x="156" y="580"/>
			<point x="156" y="388" type="curve" smooth="yes"/>
			<point x="156" y="338"/>
			<point x="161" y="278"/>
			<point x="166" y="201" type="curve" smooth="yes"/>
			<point x="168" y="162"/>
			<point x="142" y="176"/>
			<point x="150" y="222" type="curve" smooth="yes"/>
			<point x="184" y="412"/>
			<point x="287" y="480"/>
			<point x="363" y="480" type="curve" smooth="yes"/>
			<point x="453" y="480"/>
			<point x="517" y="422"/>
			<point x="517" y="285" type="curve" smooth="yes"/>
			<point x="517" y="108"/>
			<point x="359" y="5"/>
			<point x="190" y="5" type="curve" smooth="yes"/>
			<point x="141" y="5"/>
			<point x="86" y="19"/>
			<point x="86" y="56" type="curve" smooth="yes"/>
			<point x="86" y="73"/>
			<point x="96" y="82"/>
			<point x="110" y="82" type="curve" smooth="yes"/>
			<point x="127" y="82"/>
			<point x="154" y="70"/>
			<point x="178" y="70" type="curve" smooth="yes"/>
			<point x="330" y="70"/>
			<point x="450" y="148"/>
			<point x="450" y="294" type="curve" smooth="yes"/>
			<point x="450" y="355"/>
			<point x="432" y="414"/>
			<point x="363" y="414" type="curve" smooth="yes"/>
			<point x="265" y="414"/>
			<point x="207" y="281"/>
			<point x="173" y="93" type="curve" smooth="yes"/>
			<point x="168" y="70"/>
			<point x="158" y="64"/>
			<point x="147" y="64" type="curve" smooth="yes"/>
			<point x="133" y="64"/>
			<point x="124" y="88"/>
			<point x="117" y="125" type="curve" smooth="yes"/>
			<point x="98" y="229"/>
			<point x="88" y="341"/>
			<point x="88" y="404" type="curve" smooth="yes"/>
			<point x="88" y="595"/>
			<point x="104" y="668"/>
			<point x="104" y="768" type="curve" smooth="yes"/>
			<point x="104" y="789"/>
			<point x="114" y="809"/>
			<point x="132" y="809" type="curve" smooth="yes"/>
			<point x="152" y="809"/>
			<point x="172" y="785"/>
		</contour>
	</outline>
</glyph>
<glyph name="b.alt2" format="2">
	<advance width="575"/>
	<outline>
		<contour>
			<point x="172" y="743" type="curve" smooth="yes"/>
			<point x="172" y="640"/>
			<point x="156" y="580"/>
			<point x="156" y="388" type="curve" smooth="yes"/>
			<point x="156" y="342"/>
			<point x="162" y="287"/>
			<point x="166" y="216" type="curve" smooth="yes"/>
			<point x="167" y="194"/>
			<point x="145" y="198"/>
			<point x="150" y="227" type="curve" smooth="yes"/>
			<point x="181" y="404"/>
			<point x="287" y="467"/>
			<point x="363" y="467" type="curve" smooth="yes"/>
			<point x="447" y="467"/>
			<point x="507" y="413"/>
			<point x="507" y="285" type="curve" smooth="yes"/>
			<point x="507" y="117"/>
			<point x="354" y="20"/>
			<point x="190" y="20" type="curve" smooth="yes"/>
			<point x="141" y="20"/>
			<point x="86" y="34"/>
			<point x="86" y="71" type="curve" smooth="yes"/>
			<point x="86" y="88"/>
			<point x="96" y="97"/>
			<point x="110" y="97" type="curve" smooth="yes"/>
			<point x="127" y="97"/>
			<point x="154" y="85"/>
			<point x="178" y="85" type="curve" smooth="yes"/>
			<point x="325" y="85"/>
			<point x="440" y="157"/>
			<point x="440" y="294" type="curve" smooth="yes"/>
			<point x="440" y="349"/>
			<point x="424" y="401"/>
			<point x="363" y="401" type="curve" smooth="yes"/>
			<point x="265" y="401"/>
			<point x="204" y="280"/>
			<point x="173" y="108" type="curve" smooth="yes"/>
			<point x="168" y="85"/>
			<point x="158" y="79"/>
			<point x="147" y="79" type="curve" smooth="yes"/>
			<point x="133" y="79"/>
			<point x="124" y="103"/>
			<point x="117" y="140" type="curve" smooth="yes"/>
			<point x="99" y="239"/>
			<point x="88" y="345"/>
			<point x="88" y="404" type="curve" smooth="yes"/>
			<point x="88" y="595"/>
			<point x="104" y="668"/>
			<point x="104" y="768" type="curve" smooth="yes"/>
			<point x="104" y="789"/>
			<point x="114" y="809"/>
			<point x="132" y="809" type="curve" smooth="yes"/>
			<point x="152" y="809"/>
			<point x="172" y="785"/>
		</contour>
	</outline>
</glyph>
<glyph name="d.alt1" format="2">
	<advance width="613"/>
	<outline>
		<contour>
			<point x="253" y="-1" type="curve" smooth="yes"/>
			<point x="343" y="-1"/>
			<point x="424" y="91"/>
			<point x="461" y="328" type="curve"/>
			<point x="433" y="338" type="line"/>
			<point x="416" y="156"/>
			<point x="477" y="0"/>
			<point x="537" y="0" type="curve" smooth="yes"/>
			<point x="556" y="0"/>
			<point x="570" y="16"/>
			<point x="570" y="29" type="curve" smooth="yes"/>
			<point x="570" y="77"/>
			<point x="487" y="97"/>
			<point x="487" y="308" type="curve" smooth="yes"/>
			<point x="487" y="461"/>
			<point x="506" y="562"/>
			<point x="506" y="737" type="curve" smooth="yes"/>
			<point x="506" y="784"/>
			<point x="495" y="810"/>
			<point x="472" y="810" type="curve" smooth="yes"/>
			<point x="453" y="810"/>
			<point x="438" y="798"/>
			<point x="438" y="757" type="curve" smooth="yes"/>
			<point x="438" y="312"/>
			<point x="357" y="64"/>
			<point x="247" y="64" type="curve" smooth="yes"/>
			<point x="180" y="64"/>
			<point x="116" y="158"/>
			<point x="116" y="279" type="curve" smooth="yes"/>
			<point x="116" y="367"/>
			<point x="167" y="422"/>
			<point x="263" y="422" type="curve" smooth="yes"/>
			<point x="362" y="422"/>
			<point x="361" y="368"/>
			<point x="398" y="368" type="curve" smooth="yes"/>
			<point x="409" y="368"/>
			<point x="418" y="376"/>
			<point x="418" y="388" type="curve" smooth="yes"/>
			<point x="418" y="443"/>
			<point x="358" y="487"/>
			<point x="262" y="487" type="curve" smooth="yes"/>
			<point x="135" y="487"/>
			<point x="50" y="404"/>
			<point x="50" y="279" type="curve" smooth="yes"/>
			<point x="50" y="128"/>
			<point x="134" y="-1"/>
		</contour>
	</outline>
</glyph>
<glyph name="ellipsis.alt2" format="2">
	<advance width="841"/>
	<outline>
		<contour>
			<point x="176" y="-10" type="curve" smooth="yes"/>
			<point x="210" y="-10"/>
			<point x="223" y="16"/>
			<point x="223" y="41" type="curve" smooth="yes"/>
			<point x="223" y="76"/>
			<point x="194" y="119"/>
			<point x="146" y="119" type="curve" smooth="yes"/>
			<point x="120" y="119"/>
			<point x="98" y="99"/>
			<point x="98" y="71" type="curve" smooth="yes"/>
			<point x="98" y="30"/>
			<point x="134" y="-10"/>
		</contour>
		<contour>
			<point x="436" y="-10" type="curve" smooth="yes"/>
			<point x="470" y="-10"/>
			<point x="483" y="16"/>
			<point x="483" y="41" type="curve" smooth="yes"/>
			<point x="483" y="76"/>
			<point x="454" y="119"/>
			<point x="406" y="119" type="curve" smooth="yes"/>
			<point x="380" y="119"/>
			<point x="358" y="99"/>
			<point x="358" y="71" type="curve" smooth="yes"/>
			<point x="358" y="30"/>
			<point x="394" y="-10"/>
		</contour>
		<contour>
			<point x="696" y="-10" type="curve" smooth="yes"/>
			<point x="730" y="-10"/>
			<point x="743" y="16"/>
			<point x="743" y="41" type="curve" smooth="yes"/>
			<point x="743" y="76"/>
			<point x="714" y="119"/>
			<point x="666" y="119" type="curve" smooth="yes"/>
			<point x="640" y="119"/>
			<point x="618" y="99"/>
			<point x="618" y="71" type="curve" smooth="yes"/>
			<point x="618" y="30"/>
			<point x="654" y="-10"/>
		</contour>
	</outline>
</glyph>
<glyph name="exclam.alt2" format="2">
	<advance width="265"/>
	<outline>
		<contour>
			<point x="167" y="653" type="curve" smooth="yes"/>
			<point x="167" y="590"/>
			<point x="155" y="554"/>
			<point x="155" y="437" type="curve" smooth="yes"/>
			<point x="155" y="333"/>
			<point x="165" y="319"/>
			<point x="165" y="265" type="curve" smooth="yes"/>
			<point x="165" y="230"/>
			<point x="147" y="220"/>
			<point x="134" y="220" type="curve" smooth="yes"/>
			<point x="119" y="220"/>
			<point x="107" y="234"/>
			<point x="103" y="256" type="curve" smooth="yes"/>
			<point x="90" y="334"/>
			<point x="87" y="388"/>
			<point x="87" y="451" type="curve" smooth="yes"/>
			<point x="87" y="568"/>
			<point x="99" y="614"/>
			<point x="99" y="675" type="curve" smooth="yes"/>
			<point x="99" y="694"/>
			<point x="109" y="712"/>
			<point x="127" y="712" type="curve" smooth="yes"/>
			<point x="147" y="712"/>
			<point x="167" y="691"/>
		</contour>
		<contour>
			<point x="145" y="-10" type="curve" smooth="yes"/>
			<point x="181" y="-10"/>
			<point x="195" y="16"/>
			<point x="195" y="41" type="curve" smooth="yes"/>
			<point x="195" y="78"/>
			<point x="174" y="113"/>
			<point x="120" y="113" type="curve" smooth="yes"/>
			<point x="93" y="113"/>
			<point x="70" y="91"/>
			<point x="70" y="61" type="curve" smooth="yes"/>
			<point x="70" y="16"/>
			<point x="104" y="-10"/>
		</contour>
	</outline>
</glyph>
<glyph name="f.alt1" format="2">
	<advance width="322"/>
	<outline>
		<contour>
			<point x="289" y="434" type="curve" smooth="yes"/>
			<point x="315" y="434"/>
			<point x="326" y="443"/>
			<point x="326" y="458" type="curve" smooth="yes"/>
			<point x="326" y="476"/>
			<point x="312" y="494"/>
			<point x="282" y="494" type="curve" smooth="yes"/>
			<point x="218" y="494"/>
			<point x="165" y="489"/>
			<point x="111" y="480" type="curve" smooth="yes"/>
			<point x="84" y="474"/>
			<point x="74" y="457"/>
			<point x="74" y="440" type="curve" smooth="yes"/>
			<point x="74" y="426"/>
			<point x="85" y="419"/>
			<point x="98" y="419" type="curve" smooth="yes"/>
			<point x="132" y="419"/>
			<point x="163" y="434"/>
		</contour>
		<contour>
			<point x="105" y="-71" type="curve" smooth="yes"/>
			<point x="123" y="-71"/>
			<point x="132" y="-62"/>
			<point x="132" y="-29" type="curve" smooth="yes"/>
			<point x="132" y="197"/>
			<point x="109" y="321"/>
			<point x="109" y="446" type="curve" smooth="yes"/>
			<point x="109" y="603"/>
			<point x="132" y="718"/>
			<point x="290" y="750" type="curve" smooth="yes"/>
			<point x="314" y="755"/>
			<point x="324" y="768"/>
			<point x="324" y="783" type="curve" smooth="yes"/>
			<point x="324" y="801"/>
			<point x="302" y="810"/>
			<point x="286" y="810" type="curve" smooth="yes"/>
			<point x="151" y="810"/>
			<point x="39" y="696"/>
			<point x="39" y="489" type="curve" smooth="yes"/>
			<point x="39" y="292"/>
			<point x="62" y="215"/>
			<point x="62" y="-12" type="curve" smooth="yes"/>
			<point x="62" y="-49"/>
			<point x="84" y="-71"/>
		</contour>
	</outline>
</glyph>
<glyph name="f.alt2" format="2">
	<advance width="322"/>
	<outline>
		<contour>
			<point x="322" y="434" type="curve" smooth="yes"/>
			<point x="348" y="434"/>
			<point x="359" y="443"/>
			<point x="359" y="458" type="curve" smooth="yes"/>
			<point x="359" y="476"/>
			<point x="345" y="494"/>
			<point x="315" y="494" type="curve" smooth="yes"/>
			<point x="238" y="494"/>
			<point x="176" y="490"/>
			<point x="112" y="479" type="curve" smooth="yes"/>
			<point x="84" y="474"/>
			<point x="74" y="456"/>
			<point x="74" y="440" type="curve" smooth="yes"/>
			<point x="74" y="426"/>
			<point x="85" y="419"/>
			<point x="98" y="419" type="curve" smooth="yes"/>
			<point x="138" y="419"/>
			<point x="175" y="434"/>
		</contour>
		<contour>
			<point x="110" y="-128" type="curve" smooth="yes"/>
			<point x="128" y="-128"/>
			<point x="137" y="-120"/>
			<point x="137" y="-86" type="curve" smooth="yes"/>
			<point x="137" y="166"/>
			<point x="109" y="306"/>
			<point x="109" y="446" type="curve" smooth="yes"/>
			<point x="109" y="603"/>
			<point x="130" y="720"/>
			<point x="277" y="750" type="curve" smooth="yes"/>
			<point x="301" y="755"/>
			<point x="311" y="768"/>
			<point x="311" y="783" type="curve" smooth="yes"/>
			<point x="311" y="801"/>
			<point x="289" y="810"/>
			<point x="273" y="810" type="curve" smooth="yes"/>
			<point x="145" y="810"/>
			<point x="39" y="696"/>
			<point x="39" y="489" type="curve" smooth="yes"/>
			<point x="39" y="269"/>
			<point x="67" y="183"/>
			<point x="67" y="-70" type="curve" smooth="yes"/>
			<point x="67" y="-106"/>
			<point x="89" y="-128"/>
		</contour>
	</outline>
</glyph>
<glyph name="five.alt2" format="2">
	<advance width="700"/>
	<outline>
		<contour>
			<point x="551" y="674" type="curve" smooth="yes"/>
			<point x="407" y="674"/>
			<point x="341" y="645"/>
			<point x="170" y="648" type="curve"/>
			<point x="236" y="679" type="line"/>
			<point x="212" y="633"/>
			<point x="184" y="543"/>
			<point x="184" y="489" type="curve" smooth="yes"/>
			<point x="184" y="457"/>
			<point x="190" y="452"/>
			<point x="381" y="412" type="curve" smooth="yes"/>
			<point x="567" y="373"/>
			<point x="611" y="312"/>
			<point x="611" y="230" type="curve" smooth="yes"/>
			<point x="611" y="87"/>
			<point x="469" y="-29"/>
			<point x="252" y="-29" type="curve" smooth="yes"/>
			<point x="158" y="-29"/>
			<point x="115" y="14"/>
			<point x="115" y="78" type="curve" smooth="yes"/>
			<point x="115" y="99"/>
			<point x="124" y="115"/>
			<point x="142" y="115" type="curve" smooth="yes"/>
			<point x="174" y="115"/>
			<point x="167" y="36"/>
			<point x="239" y="36" type="curve" smooth="yes"/>
			<point x="411" y="36"/>
			<point x="544" y="107"/>
			<point x="544" y="226" type="curve" smooth="yes"/>
			<point x="544" y="298"/>
			<point x="459" y="330"/>
			<point x="345" y="354" type="curve" smooth="yes"/>
			<point x="132" y="398"/>
			<point x="117" y="414"/>
			<point x="117" y="483" type="curve" smooth="yes"/>
			<point x="117" y="523"/>
			<point x="124" y="579"/>
			<point x="147" y="654" type="curve" smooth="yes"/>
			<point x="160" y="696"/>
			<point x="183" y="713"/>
			<point x="210" y="713" type="curve" smooth="yes"/>
			<point x="358" y="710"/>
			<point x="414" y="739"/>
			<point x="525" y="739" type="curve" smooth="yes"/>
			<point x="572" y="739"/>
			<point x="596" y="719"/>
			<point x="595" y="698" type="curve" smooth="yes"/>
			<point x="594" y="683"/>
			<point x="577" y="674"/>
		</contour>
	</outline>
</glyph>
<glyph name="four.alt2" format="2">
	<advance width="700"/>
	<outline>
		<contour>
			<point x="398" y="157" type="curve" smooth="yes"/>
			<point x="398" y="303"/>
			<point x="445" y="447"/>
			<point x="445" y="626" type="curve" smooth="yes"/>
			<point x="445" y="678"/>
			<point x="440" y="714"/>
			<point x="430" y="744" type="curve"/>
			<point x="458" y="742" type="line"/>
			<point x="289" y="645"/>
			<point x="128" y="439"/>
			<point x="72" y="214" type="curve"/>
			<point x="48" y="252" type="line"/>
			<point x="83" y="237"/>
			<point x="90" y="236"/>
			<point x="109" y="236" type="curve" smooth="yes"/>
			<point x="268" y="236"/>
			<point x="399" y="287"/>
			<point x="616" y="287" type="curve" smooth="yes"/>
			<point x="662" y="287"/>
			<point x="688" y="271"/>
			<point x="688" y="249" type="curve" smooth="yes"/>
			<point x="688" y="233"/>
			<point x="674" y="222"/>
			<point x="642" y="222" type="curve" smooth="yes"/>
			<point x="414" y="222"/>
			<point x="283" y="170"/>
			<point x="102" y="170" type="curve" smooth="yes"/>
			<point x="50" y="170"/>
			<point x="17" y="199"/>
			<point x="17" y="242" type="curve" smooth="yes"/>
			<point x="17" y="267"/>
			<point x="23" y="286"/>
			<point x="40" y="329" type="curve" smooth="yes"/>
			<point x="144" y="592"/>
			<point x="354" y="798"/>
			<point x="458" y="798" type="curve" smooth="yes"/>
			<point x="498" y="798"/>
			<point x="512" y="746"/>
			<point x="512" y="628" type="curve" smooth="yes"/>
			<point x="512" y="456"/>
			<point x="465" y="329"/>
			<point x="465" y="148" type="curve" smooth="yes"/>
			<point x="465" y="62"/>
			<point x="475" y="25"/>
			<point x="475" y="-23" type="curve" smooth="yes"/>
			<point x="475" y="-51"/>
			<point x="463" y="-67"/>
			<point x="445" y="-67" type="curve" smooth="yes"/>
			<point x="411" y="-67"/>
			<point x="398" y="-1"/>
		</contour>
	</outline>
</glyph>
<glyph name="g.alt1" format="2">
	<advance width="600"/>
	<outline>
		<contour>
			<point x="433" y="463" type="curve" smooth="yes"/>
			<point x="464" y="463"/>
			<point x="479" y="428"/>
			<point x="482" y="390" type="curve" smooth="yes"/>
			<point x="496" y="221"/>
			<point x="551" y="142"/>
			<point x="551" y="-59" type="curve" smooth="yes"/>
			<point x="551" y="-184"/>
			<point x="487" y="-260"/>
			<point x="375" y="-260" type="curve" smooth="yes"/>
			<point x="184" y="-260"/>
			<point x="107" y="-149"/>
			<point x="107" y="-71" type="curve" smooth="yes"/>
			<point x="107" y="-43"/>
			<point x="125" y="-19"/>
			<point x="147" y="-19" type="curve" smooth="yes"/>
			<point x="165" y="-19"/>
			<point x="173" y="-30"/>
			<point x="173" y="-51" type="curve" smooth="yes"/>
			<point x="173" y="-138"/>
			<point x="259" y="-196"/>
			<point x="367" y="-196" type="curve" smooth="yes"/>
			<point x="457" y="-196"/>
			<point x="484" y="-143"/>
			<point x="484" y="-48" type="curve" smooth="yes"/>
			<point x="484" y="112"/>
			<point x="429" y="208"/>
			<point x="417" y="328" type="curve"/>
			<point x="449" y="317" type="line"/>
			<point x="428" y="163"/>
			<point x="347" y="91"/>
			<point x="232" y="91" type="curve" smooth="yes"/>
			<point x="118" y="91"/>
			<point x="47" y="151"/>
			<point x="47" y="267" type="curve" smooth="yes"/>
			<point x="47" y="386"/>
			<point x="157" y="494"/>
			<point x="278" y="494" type="curve" smooth="yes"/>
			<point x="378" y="494"/>
			<point x="413" y="444"/>
			<point x="413" y="397" type="curve" smooth="yes"/>
			<point x="413" y="384"/>
			<point x="402" y="363"/>
			<point x="389" y="363" type="curve" smooth="yes"/>
			<point x="348" y="363"/>
			<point x="364" y="428"/>
			<point x="289" y="428" type="curve" smooth="yes"/>
			<point x="191" y="428"/>
			<point x="114" y="348"/>
			<point x="114" y="262" type="curve" smooth="yes"/>
			<point x="114" y="192"/>
			<point x="150" y="154"/>
			<point x="231" y="154" type="curve" smooth="yes"/>
			<point x="324" y="154"/>
			<point x="400" y="225"/>
			<point x="400" y="424" type="curve" smooth="yes"/>
			<point x="400" y="451"/>
			<point x="408" y="463"/>
		</contour>
	</outline>
</glyph>
<glyph name="hyphen.alt2" format="2">
	<advance width="471"/>
	<outline>
		<contour>
			<point x="118" y="212" type="curve" smooth="yes"/>
			<point x="153" y="212"/>
			<point x="209" y="232"/>
			<point x="365" y="232" type="curve" smooth="yes"/>
			<point x="397" y="232"/>
			<point x="416" y="243"/>
			<point x="416" y="261" type="curve" smooth="yes"/>
			<point x="416" y="274"/>
			<point x="394" y="295"/>
			<point x="332" y="295" type="curve" smooth="yes"/>
			<point x="250" y="295"/>
			<point x="174" y="282"/>
			<point x="87" y="271" type="curve" smooth="yes"/>
			<point x="62" y="268"/>
			<point x="55" y="253"/>
			<point x="55" y="242" type="curve" smooth="yes"/>
			<point x="55" y="227"/>
			<point x="77" y="212"/>
		</contour>
	</outline>
</glyph>
<glyph name="i.alt1" format="2">
	<advance width="276"/>
	<outline>
		<contour>
			<point x="143" y="-11" type="curve" smooth="yes"/>
			<point x="159" y="-11"/>
			<point x="167" y="0"/>
			<point x="167" y="17" type="curve" smooth="yes"/>
			<point x="167" y="90"/>
			<point x="176" y="322"/>
			<point x="175" y="391" type="curve" smooth="yes"/>
			<point x="174" y="424"/>
			<point x="154" y="442"/>
			<point x="130" y="442" type="curve" smooth="yes"/>
			<point x="109" y="442"/>
			<point x="99" y="426"/>
			<point x="99" y="402" type="curve" smooth="yes"/>
			<point x="99" y="304"/>
			<point x="102" y="246"/>
			<point x="102" y="53" type="curve" smooth="yes"/>
			<point x="102" y="20"/>
			<point x="120" y="-11"/>
		</contour>
		<contour>
			<point x="150" y="685" type="curve" smooth="yes"/>
			<point x="189" y="685"/>
			<point x="204" y="712"/>
			<point x="204" y="733" type="curve" smooth="yes"/>
			<point x="204" y="767"/>
			<point x="172" y="809"/>
			<point x="121" y="809" type="curve" smooth="yes"/>
			<point x="94" y="809"/>
			<point x="73" y="789"/>
			<point x="73" y="764" type="curve" smooth="yes"/>
			<point x="73" y="724"/>
			<point x="109" y="685"/>
		</contour>
	</outline>
</glyph>
<glyph name="j.alt2" format="2">
	<advance width="241"/>
	<outline>
		<contour>
			<point x="119" y="413" type="curve" smooth="yes"/>
			<point x="163" y="256"/>
			<point x="189" y="127"/>
			<point x="189" y="-40" type="curve" smooth="yes"/>
			<point x="189" y="-185"/>
			<point x="114" y="-260"/>
			<point x="0" y="-260" type="curve" smooth="yes"/>
			<point x="-121" y="-260"/>
			<point x="-184" y="-221"/>
			<point x="-184" y="-187" type="curve" smooth="yes"/>
			<point x="-184" y="-169"/>
			<point x="-175" y="-159"/>
			<point x="-154" y="-159" type="curve" smooth="yes"/>
			<point x="-124" y="-159"/>
			<point x="-92" y="-194"/>
			<point x="-9" y="-194" type="curve" smooth="yes"/>
			<point x="74" y="-194"/>
			<point x="122" y="-147"/>
			<point x="122" y="-52" type="curve" smooth="yes"/>
			<point x="122" y="267"/>
			<point x="46" y="364"/>
			<point x="46" y="424" type="curve" smooth="yes"/>
			<point x="46" y="454"/>
			<point x="60" y="466"/>
			<point x="75" y="466" type="curve" smooth="yes"/>
			<point x="91" y="466"/>
			<point x="108" y="454"/>
		</contour>
		<contour>
			<point x="130" y="677" type="curve" smooth="yes"/>
			<point x="169" y="677"/>
			<point x="184" y="704"/>
			<point x="184" y="725" type="curve" smooth="yes"/>
			<point x="184" y="759"/>
			<point x="152" y="801"/>
			<point x="101" y="801" type="curve" smooth="yes"/>
			<point x="74" y="801"/>
			<point x="53" y="781"/>
			<point x="53" y="756" type="curve" smooth="yes"/>
			<point x="53" y="716"/>
			<point x="89" y="677"/>
		</contour>
	</outline>
</glyph>
<glyph name="l.alt2" format="2">
	<advance width="318"/>
	<outline>
		<contour>
			<point x="157" y="751" type="curve" smooth="yes"/>
			<point x="157" y="678"/>
			<point x="129" y="594"/>
			<point x="129" y="347" type="curve" smooth="yes"/>
			<point x="129" y="126"/>
			<point x="157" y="56"/>
			<point x="193" y="56" type="curve" smooth="yes"/>
			<point x="255" y="56"/>
			<point x="264" y="91"/>
			<point x="296" y="91" type="curve" smooth="yes"/>
			<point x="314" y="91"/>
			<point x="320" y="79"/>
			<point x="320" y="62" type="curve" smooth="yes"/>
			<point x="320" y="23"/>
			<point x="255" y="-11"/>
			<point x="195" y="-11" type="curve" smooth="yes"/>
			<point x="113" y="-11"/>
			<point x="61" y="33"/>
			<point x="61" y="367" type="curve" smooth="yes"/>
			<point x="61" y="541"/>
			<point x="73" y="636"/>
			<point x="89" y="741" type="curve" smooth="yes"/>
			<point x="98" y="793"/>
			<point x="108" y="810"/>
			<point x="126" y="810" type="curve" smooth="yes"/>
			<point x="145" y="810"/>
			<point x="157" y="794"/>
		</contour>
	</outline>
</glyph>
<glyph name="quotedblright.alt1" format="2">
	<advance width="435"/>
	<outline>
		<contour>
			<point x="190" y="812" type="curve" smooth="yes"/>
			<point x="171" y="812"/>
			<point x="160" y="804"/>
			<point x="136" y="760" type="curve" smooth="yes"/>
			<point x="91" y="678"/>
			<point x="55" y="562"/>
			<point x="55" y="484" type="curve" smooth="yes"/>
			<point x="55" y="441"/>
			<point x="72" y="415"/>
			<point x="97" y="415" type="curve" smooth="yes"/>
			<point x="116" y="415"/>
			<point x="125" y="427"/>
			<point x="135" y="474" type="curve" smooth="yes"/>
			<point x="148" y="534"/>
			<point x="152" y="600"/>
			<point x="208" y="690" type="curve" smooth="yes"/>
			<point x="237" y="737"/>
			<point x="240" y="748"/>
			<point x="240" y="761" type="curve" smooth="yes"/>
			<point x="240" y="784"/>
			<point x="213" y="812"/>
		</contour>
		<contour>
			<point x="370" y="752" type="curve" smooth="yes"/>
			<point x="351" y="752"/>
			<point x="340" y="744"/>
			<point x="316" y="700" type="curve" smooth="yes"/>
			<point x="282" y="637"/>
			<point x="255" y="552"/>
			<point x="255" y="494" type="curve" smooth="yes"/>
			<point x="255" y="451"/>
			<point x="272" y="425"/>
			<point x="297" y="425" type="curve" smooth="yes"/>
			<point x="316" y="425"/>
			<point x="325" y="437"/>
			<point x="335" y="484" type="curve" smooth="yes"/>
			<point x="344" y="525"/>
			<point x="348" y="566"/>
			<point x="388" y="630" type="curve" smooth="yes"/>
			<point x="417" y="677"/>
			<point x="420" y="688"/>
			<point x="420" y="701" type="curve" smooth="yes"/>
			<point x="420" y="724"/>
			<point x="393" y="752"/>
		</contour>
	</outline>
</glyph>
<glyph name="quoteleft.alt1" format="2">
	<advance width="212"/>
	<outline>
		<contour>
			<point x="213" y="809" type="curve" smooth="yes"/>
			<point x="195" y="809"/>
			<point x="182" y="803"/>
			<point x="153" y="766" type="curve" smooth="yes"/>
			<point x="97" y="694"/>
			<point x="60" y="601"/>
			<point x="60" y="527" type="curve" smooth="yes"/>
			<point x="60" y="489"/>
			<point x="77" y="455"/>
			<point x="102" y="455" type="curve" smooth="yes"/>
			<point x="121" y="455"/>
			<point x="131" y="469"/>
			<point x="143" y="524" type="curve" smooth="yes"/>
			<point x="155" y="580"/>
			<point x="176" y="646"/>
			<point x="232" y="713" type="curve" smooth="yes"/>
			<point x="253" y="738"/>
			<point x="256" y="746"/>
			<point x="256" y="755" type="curve" smooth="yes"/>
			<point x="257" y="779"/>
			<point x="241" y="809"/>
		</contour>
	</outline>
</glyph>
<glyph name="slash.alt2" format="2">
	<advance width="330"/>
	<outline>
		<contour>
			<point x="412" y="743" type="curve" smooth="yes"/>
			<point x="228" y="438"/>
			<point x="138" y="170"/>
			<point x="117" y="-106" type="curve" smooth="yes"/>
			<point x="115" y="-135"/>
			<point x="103" y="-148"/>
			<point x="85" y="-148" type="curve" smooth="yes"/>
			<point x="62" y="-148"/>
			<point x="46" y="-131"/>
			<point x="48" y="-102" type="curve" smooth="yes"/>
			<point x="70" y="196"/>
			<point x="169" y="483"/>
			<point x="342" y="775" type="curve" smooth="yes"/>
			<point x="361" y="807"/>
			<point x="374" y="820"/>
			<point x="392" y="820" type="curve" smooth="yes"/>
			<point x="415" y="820"/>
			<point x="440" y="790"/>
		</contour>
	</outline>
</glyph>
<glyph name="t.alt2" format="2">
	<advance width="443"/>
	<outline>
		<contour>
			<point x="148" y="266" type="curve" smooth="yes"/>
			<point x="148" y="414"/>
			<point x="180" y="465"/>
			<point x="200" y="616" type="curve" smooth="yes"/>
			<point x="212" y="713"/>
			<point x="208" y="765"/>
			<point x="174" y="765" type="curve" smooth="yes"/>
			<point x="154" y="765"/>
			<point x="148" y="753"/>
			<point x="146" y="738" type="curve" smooth="yes"/>
			<point x="142" y="704"/>
			<point x="138" y="668"/>
			<point x="130" y="603" type="curve" smooth="yes"/>
			<point x="116" y="501"/>
			<point x="81" y="406"/>
			<point x="81" y="262" type="curve" smooth="yes"/>
			<point x="81" y="97"/>
			<point x="135" y="-13"/>
			<point x="281" y="-13" type="curve" smooth="yes"/>
			<point x="345" y="-13"/>
			<point x="381" y="18"/>
			<point x="381" y="49" type="curve" smooth="yes"/>
			<point x="381" y="67"/>
			<point x="375" y="76"/>
			<point x="361" y="76" type="curve" smooth="yes"/>
			<point x="334" y="76"/>
			<point x="335" y="53"/>
			<point x="278" y="53" type="curve" smooth="yes"/>
			<point x="192" y="53"/>
			<point x="148" y="107"/>
		</contour>
		<contour>
			<point x="155" y="387" type="curve" smooth="yes"/>
			<point x="220" y="408"/>
			<point x="275" y="422"/>
			<point x="373" y="431" type="curve" smooth="yes"/>
			<point x="398" y="433"/>
			<point x="408" y="439"/>
			<point x="408" y="457" type="curve" smooth="yes"/>
			<point x="408" y="476"/>
			<point x="389" y="492"/>
			<point x="361" y="492" type="curve" smooth="yes"/>
			<point x="304" y="492"/>
			<point x="225" y="476"/>
			<point x="170" y="457" type="curve" smooth="yes"/>
			<point x="118" y="441"/>
			<point x="111" y="429"/>
			<point x="111" y="405" type="curve" smooth="yes"/>
			<point x="111" y="386"/>
			<point x="123" y="376"/>
		</contour>
	</outline>
</glyph>
<glyph name="three.alt1" format="2">
	<advance width="700"/>
	<outline>
		<contour>
			<point x="371" y="735" type="curve" smooth="yes"/>
			<point x="494" y="735"/>
			<point x="553" y="674"/>
			<point x="553" y="580" type="curve" smooth="yes"/>
			<point x="553" y="495"/>
			<point x="508" y="398"/>
			<point x="318" y="359" type="curve"/>
			<point x="319" y="376" type="line"/>
			<point x="523" y="378"/>
			<point x="615" y="315"/>
			<point x="615" y="201" type="curve" smooth="yes"/>
			<point x="615" y="67"/>
			<point x="497" y="-28"/>
			<point x="317" y="-28" type="curve" smooth="yes"/>
			<point x="183" y="-28"/>
			<point x="112" y="28"/>
			<point x="112" y="66" type="curve" smooth="yes"/>
			<point x="112" y="85"/>
			<point x="123" y="98"/>
			<point x="139" y="98" type="curve" smooth="yes"/>
			<point x="173" y="98"/>
			<point x="174" y="38"/>
			<point x="304" y="38" type="curve" smooth="yes"/>
			<point x="438" y="38"/>
			<point x="548" y="103"/>
			<point x="548" y="201" type="curve" smooth="yes"/>
			<point x="548" y="295"/>
			<point x="443" y="322"/>
			<point x="303" y="323" type="curve" smooth="yes"/>
			<point x="270" y="323"/>
			<point x="251" y="346"/>
			<point x="251" y="367" type="curve" smooth="yes"/>
			<point x="251" y="382"/>
			<point x="260" y="396"/>
			<point x="284" y="402" type="curve" smooth="yes"/>
			<point x="392" y="429"/>
			<point x="486" y="480"/>
			<point x="486" y="580" type="curve" smooth="yes"/>
			<point x="486" y="657"/>
			<point x="426" y="670"/>
			<point x="371" y="670" type="curve" smooth="yes"/>
			<point x="199" y="670"/>
			<point x="176" y="596"/>
			<point x="140" y="596" type="curve" smooth="yes"/>
			<point x="116" y="596"/>
			<point x="106" y="607"/>
			<point x="106" y="623" type="curve" smooth="yes"/>
			<point x="106" y="661"/>
			<point x="233" y="735"/>
		</contour>
	</outline>
</glyph>
<glyph name="three.alt2" format="2">
	<advance width="700"/>
	<outline>
		<contour>
			<point x="369" y="758" type="curve" smooth="yes"/>
			<point x="499" y="758"/>
			<point x="559" y="695"/>
			<point x="559" y="598" type="curve" smooth="yes"/>
			<point x="559" y="506"/>
			<point x="511" y="406"/>
			<point x="318" y="359" type="curve"/>
			<point x="319" y="376" type="line"/>
			<point x="527" y="378"/>
			<point x="621" y="313"/>
			<point x="621" y="195" type="curve" smooth="yes"/>
			<point x="621" y="54"/>
			<point x="501" y="-45"/>
			<point x="317" y="-45" type="curve" smooth="yes"/>
			<point x="183" y="-45"/>
			<point x="112" y="11"/>
			<point x="112" y="49" type="curve" smooth="yes"/>
			<point x="112" y="68"/>
			<point x="123" y="82"/>
			<point x="139" y="82" type="curve" smooth="yes"/>
			<point x="173" y="82"/>
			<point x="174" y="22"/>
			<point x="304" y="22" type="curve" smooth="yes"/>
			<point x="446" y="22"/>
			<point x="554" y="91"/>
			<point x="554" y="195" type="curve" smooth="yes"/>
			<point x="554" y="294"/>
			<point x="447" y="322"/>
			<point x="303" y="323" type="curve" smooth="yes"/>
			<point x="270" y="323"/>
			<point x="251" y="346"/>
			<point x="251" y="367" type="curve" smooth="yes"/>
			<point x="251" y="382"/>
			<point x="260" y="396"/>
			<point x="286" y="402" type="curve" smooth="yes"/>
			<point x="400" y="431"/>
			<point x="492" y="490"/>
			<point x="492" y="598" type="curve" smooth="yes"/>
			<point x="492" y="680"/>
			<point x="428" y="693"/>
			<point x="369" y="693" type="curve" smooth="yes"/>
			<point x="198" y="693"/>
			<point x="176" y="619"/>
			<point x="140" y="619" type="curve" smooth="yes"/>
			<point x="116" y="619"/>
			<point x="106" y="630"/>
			<point x="106" y="646" type="curve" smooth="yes"/>
			<point x="106" y="684"/>
			<point x="230" y="758"/>
		</contour>
	</outline>
</glyph>
<glyph name="two.alt1" format="2">
	<advance width="700"/>
	<outline>
		<contour>
			<point x="143" y="648" type="curve" smooth="yes"/>
			<point x="202" y="693"/>
			<point x="289" y="730"/>
			<point x="378" y="730" type="curve" smooth="yes"/>
			<point x="524" y="730"/>
			<point x="580" y="648"/>
			<point x="580" y="532" type="curve" smooth="yes"/>
			<point x="580" y="401"/>
			<point x="499" y="222"/>
			<point x="159" y="23" type="curve"/>
			<point x="147" y="49" type="line"/>
			<point x="166" y="39"/>
			<point x="183" y="37"/>
			<point x="202" y="37" type="curve" smooth="yes"/>
			<point x="284" y="37"/>
			<point x="409" y="59"/>
			<point x="548" y="59" type="curve" smooth="yes"/>
			<point x="604" y="59"/>
			<point x="617" y="36"/>
			<point x="617" y="19" type="curve" smooth="yes"/>
			<point x="617" y="1"/>
			<point x="604" y="-7"/>
			<point x="572" y="-7" type="curve" smooth="yes"/>
			<point x="379" y="-7"/>
			<point x="295" y="-27"/>
			<point x="198" y="-27" type="curve" smooth="yes"/>
			<point x="139" y="-27"/>
			<point x="107" y="-7"/>
			<point x="107" y="37" type="curve" smooth="yes"/>
			<point x="107" y="54"/>
			<point x="116" y="70"/>
			<point x="130" y="78" type="curve" smooth="yes"/>
			<point x="427" y="265"/>
			<point x="513" y="411"/>
			<point x="513" y="532" type="curve" smooth="yes"/>
			<point x="513" y="614"/>
			<point x="470" y="664"/>
			<point x="378" y="664" type="curve" smooth="yes"/>
			<point x="238" y="664"/>
			<point x="182" y="584"/>
			<point x="148" y="584" type="curve" smooth="yes"/>
			<point x="130" y="584"/>
			<point x="117" y="598"/>
			<point x="117" y="612" type="curve" smooth="yes"/>
			<point x="117" y="624"/>
			<point x="125" y="634"/>
		</contour>
	</outline>
</glyph>
<glyph name="u.alt1" format="2">
	<advance width="579"/>
	<outline>
		<contour>
			<point x="303" y="-3" type="curve" smooth="yes"/>
			<point x="410" y="-3"/>
			<point x="495" y="112"/>
			<point x="495" y="349" type="curve" smooth="yes"/>
			<point x="495" y="453"/>
			<point x="475" y="483"/>
			<point x="444" y="483" type="curve" smooth="yes"/>
			<point x="426" y="483"/>
			<point x="421" y="472"/>
			<point x="421" y="455" type="curve" smooth="yes"/>
			<point x="421" y="420"/>
			<point x="428" y="404"/>
			<point x="428" y="348" type="curve" smooth="yes"/>
			<point x="428" y="151"/>
			<point x="377" y="62"/>
			<point x="291" y="62" type="curve" smooth="yes"/>
			<point x="216" y="62"/>
			<point x="132" y="184"/>
			<point x="132" y="285" type="curve" smooth="yes"/>
			<point x="132" y="392"/>
			<point x="156" y="402"/>
			<point x="156" y="445" type="curve" smooth="yes"/>
			<point x="156" y="466"/>
			<point x="146" y="480"/>
			<point x="127" y="480" type="curve" smooth="yes"/>
			<point x="113" y="480"/>
			<point x="101" y="471"/>
			<point x="97" y="459" type="curve" smooth="yes"/>
			<point x="75" y="402"/>
			<point x="65" y="347"/>
			<point x="65" y="285" type="curve" smooth="yes"/>
			<point x="65" y="164"/>
			<point x="158" y="-3"/>
		</contour>
	</outline>
</glyph>
<glyph name="v.alt2" format="2">
	<advance width="506"/>
	<outline>
		<contour>
			<point x="209" y="27" type="curve" smooth="yes"/>
			<point x="226" y="1"/>
			<point x="238" y="-10"/>
			<point x="255" y="-10" type="curve" smooth="yes"/>
			<point x="274" y="-10"/>
			<point x="283" y="-1"/>
			<point x="294" y="25" type="curve" smooth="yes"/>
			<point x="370" y="203"/>
			<point x="377" y="317"/>
			<point x="478" y="444" type="curve" smooth="yes"/>
			<point x="485" y="453"/>
			<point x="490" y="463"/>
			<point x="490" y="475" type="curve" smooth="yes"/>
			<point x="490" y="490"/>
			<point x="475" y="507"/>
			<point x="458" y="507" type="curve" smooth="yes"/>
			<point x="441" y="507"/>
			<point x="434" y="499"/>
			<point x="421" y="484" type="curve" smooth="yes"/>
			<point x="333" y="372"/>
			<point x="310" y="229"/>
			<point x="238" y="64" type="curve"/>
			<point x="268" y="67" type="line"/>
			<point x="222" y="141"/>
			<point x="195" y="262"/>
			<point x="162" y="353" type="curve" smooth="yes"/>
			<point x="138" y="416"/>
			<point x="119" y="479"/>
			<point x="68" y="479" type="curve" smooth="yes"/>
			<point x="49" y="479"/>
			<point x="39" y="469"/>
			<point x="39" y="459" type="curve" smooth="yes"/>
			<point x="39" y="425"/>
			<point x="66" y="429"/>
			<point x="121" y="273" type="curve" smooth="yes"/>
			<point x="153" y="183"/>
			<point x="180" y="73"/>
		</contour>
	</outline>
</glyph>
<glyph name="w.alt1" format="2">
	<advance width="857"/>
	<outline>
		<contour>
			<point x="119" y="423" type="curve" smooth="yes"/>
			<point x="177" y="318"/>
			<point x="183" y="154"/>
			<point x="231" y="62" type="curve" smooth="yes"/>
			<point x="248" y="32"/>
			<point x="190" y="29"/>
			<point x="212" y="59" type="curve" smooth="yes"/>
			<point x="252" y="117"/>
			<point x="286" y="285"/>
			<point x="322" y="370" type="curve" smooth="yes"/>
			<point x="356" y="450"/>
			<point x="378" y="480"/>
			<point x="412" y="480" type="curve" smooth="yes"/>
			<point x="464" y="480"/>
			<point x="491" y="434"/>
			<point x="539" y="323" type="curve" smooth="yes"/>
			<point x="569" y="251"/>
			<point x="606" y="123"/>
			<point x="659" y="68" type="curve" smooth="yes"/>
			<point x="698" y="27"/>
			<point x="628" y="16"/>
			<point x="649" y="64" type="curve" smooth="yes"/>
			<point x="696" y="156"/>
			<point x="691" y="289"/>
			<point x="723" y="389" type="curve" smooth="yes"/>
			<point x="741" y="444"/>
			<point x="771" y="482"/>
			<point x="811" y="482" type="curve" smooth="yes"/>
			<point x="826" y="482"/>
			<point x="838" y="471"/>
			<point x="838" y="460" type="curve" smooth="yes"/>
			<point x="838" y="441"/>
			<point x="829" y="423"/>
			<point x="812" y="410" type="curve" smooth="yes"/>
			<point x="772" y="379"/>
			<point x="763" y="251"/>
			<point x="748" y="166" type="curve" smooth="yes"/>
			<point x="724" y="29"/>
			<point x="707" y="-2"/>
			<point x="661" y="-2" type="curve" smooth="yes"/>
			<point x="626" y="-2"/>
			<point x="609" y="15"/>
			<point x="570" y="75" type="curve" smooth="yes"/>
			<point x="509" y="171"/>
			<point x="474" y="353"/>
			<point x="411" y="415" type="curve" smooth="yes"/>
			<point x="378" y="446"/>
			<point x="446" y="445"/>
			<point x="424" y="419" type="curve" smooth="yes"/>
			<point x="371" y="359"/>
			<point x="345" y="197"/>
			<point x="289" y="67" type="curve" smooth="yes"/>
			<point x="265" y="12"/>
			<point x="254" y="-4"/>
			<point x="215" y="-4" type="curve" smooth="yes"/>
			<point x="185" y="-4"/>
			<point x="163" y="22"/>
			<point x="142" y="104" type="curve" smooth="yes"/>
			<point x="117" y="200"/>
			<point x="99" y="340"/>
			<point x="39" y="426" type="curve" smooth="yes"/>
			<point x="12" y="463"/>
			<point x="22" y="483"/>
			<point x="51" y="483" type="curve" smooth="yes"/>
			<point x="70" y="483"/>
			<point x="90" y="478"/>
		</contour>
	</outline>
</glyph>
<glyph name="x.alt1" format="2">
	<advance width="499"/>
	<outline>
		<contour>
			<point x="443" y="419" type="curve" smooth="yes"/>
			<point x="288" y="327"/>
			<point x="179" y="160"/>
			<point x="116" y="-19" type="curve" smooth="yes"/>
			<point x="108" y="-43"/>
			<point x="95" y="-53"/>
			<point x="84" y="-53" type="curve" smooth="yes"/>
			<point x="71" y="-53"/>
			<point x="54" y="-48"/>
			<point x="54" y="-14" type="curve" smooth="yes"/>
			<point x="54" y="58"/>
			<point x="160" y="275"/>
			<point x="334" y="421" type="curve" smooth="yes"/>
			<point x="406" y="481"/>
			<point x="428" y="490"/>
			<point x="451" y="490" type="curve" smooth="yes"/>
			<point x="467" y="490"/>
			<point x="477" y="481"/>
			<point x="477" y="467" type="curve" smooth="yes"/>
			<point x="477" y="451"/>
			<point x="469" y="435"/>
		</contour>
		<contour>
			<point x="409" y="119" type="curve" smooth="yes"/>
			<point x="450" y="61"/>
			<point x="456" y="34"/>
			<point x="456" y="15" type="curve" smooth="yes"/>
			<point x="456" y="4"/>
			<point x="450" y="-3"/>
			<point x="440" y="-3" type="curve" smooth="yes"/>
			<point x="424" y="-3"/>
			<point x="402" y="7"/>
			<point x="381" y="38" type="curve" smooth="yes"/>
			<point x="294" y="158"/>
			<point x="173" y="322"/>
			<point x="82" y="398" type="curve" smooth="yes"/>
			<point x="49" y="426"/>
			<point x="29" y="445"/>
			<point x="29" y="467" type="curve" smooth="yes"/>
			<point x="29" y="478"/>
			<point x="36" y="488"/>
			<point x="53" y="488" type="curve" smooth="yes"/>
			<point x="79" y="488"/>
			<point x="96" y="477"/>
			<point x="136" y="440" type="curve" smooth="yes"/>
			<point x="201" y="379"/>
			<point x="350" y="201"/>
		</contour>
	</outline>
</glyph>
<glyph name="x.alt2" format="2">
	<advance width="499"/>
	<outline>
		<contour>
			<point x="440" y="413" type="curve" smooth="yes"/>
			<point x="279" y="317"/>
			<point x="171" y="144"/>
			<point x="106" y="-58" type="curve" smooth="yes"/>
			<point x="98" y="-82"/>
			<point x="85" y="-92"/>
			<point x="74" y="-92" type="curve" smooth="yes"/>
			<point x="61" y="-92"/>
			<point x="44" y="-87"/>
			<point x="44" y="-56" type="curve" smooth="yes"/>
			<point x="44" y="23"/>
			<point x="148" y="260"/>
			<point x="331" y="414" type="curve" smooth="yes"/>
			<point x="403" y="475"/>
			<point x="425" y="484"/>
			<point x="448" y="484" type="curve" smooth="yes"/>
			<point x="464" y="484"/>
			<point x="474" y="475"/>
			<point x="474" y="461" type="curve" smooth="yes"/>
			<point x="474" y="445"/>
			<point x="466" y="429"/>
		</contour>
		<contour>
			<point x="405" y="125" type="curve" smooth="yes"/>
			<point x="446" y="67"/>
			<point x="452" y="40"/>
			<point x="452" y="21" type="curve" smooth="yes"/>
			<point x="452" y="10"/>
			<point x="446" y="3"/>
			<point x="436" y="3" type="curve" smooth="yes"/>
			<point x="420" y="3"/>
			<point x="398" y="13"/>
			<point x="377" y="44" type="curve" smooth="yes"/>
			<point x="294" y="160"/>
			<point x="174" y="317"/>
			<point x="86" y="392" type="curve" smooth="yes"/>
			<point x="53" y="420"/>
			<point x="33" y="439"/>
			<point x="33" y="461" type="curve" smooth="yes"/>
			<point x="33" y="472"/>
			<point x="40" y="482"/>
			<point x="57" y="482" type="curve" smooth="yes"/>
			<point x="83" y="482"/>
			<point x="100" y="471"/>
			<point x="140" y="434" type="curve" smooth="yes"/>
			<point x="202" y="375"/>
			<point x="348" y="205"/>
		</contour>
	</outline>
</glyph>
